<?xml version="1.0" standalone="no"?>
<!DOCTYPE svg PUBLIC "-//W3C//DTD SVG 20010904//EN"
 "http://www.w3.org/TR/2001/REC-SVG-20010904/DTD/svg10.dtd">
<svg version="1.0" xmlns="http://www.w3.org/2000/svg"
 width="225.000000pt" height="225.000000pt" viewBox="0 0 225.000000 225.000000"
 preserveAspectRatio="xMidYMid meet">
<metadata>
Created by potrace 1.11, written by Peter Selinger 2001-2013
</metadata>
<g transform="translate(0.000000,225.000000) scale(0.100000,-0.100000)"
fill="#000000" stroke="none">
<path d="M178 2059 c-17 -9 -18 -63 -18 -902 0 -681 3 -896 12 -905 17 -17
1909 -17 1926 0 14 14 16 116 2 138 -8 13 -118 15 -875 18 l-866 2 -15 35
c-12 29 -14 158 -14 819 0 766 0 786 -19 796 -25 13 -111 13 -133 -1z"/>
<path d="M1620 1774 c-14 -9 -16 -12 -5 -7 37 14 215 16 233 1 15 -12 16 -11
3 5 -11 14 -30 17 -110 17 -68 -1 -103 -5 -121 -16z"/>
<path d="M1638 1743 c-10 -2 -18 -9 -18 -14 0 -12 17 -12 25 1 3 6 14 10 23
10 15 -1 14 -3 -3 -16 -11 -8 -30 -13 -42 -11 -18 3 -24 -3 -37 -44 -14 -41
-16 -121 -16 -549 0 -528 2 -547 45 -564 9 -3 67 -6 129 -6 108 0 113 1 137
26 l24 26 -4 526 c-2 290 -7 529 -11 532 -4 3 -11 20 -15 38 -5 25 -10 31 -18
23 -14 -14 -47 -14 -47 0 0 7 9 9 21 6 13 -3 19 -1 16 6 -4 12 -173 20 -209
10z m149 -9 c-3 -3 -12 -4 -19 -1 -8 3 -5 6 6 6 11 1 17 -2 13 -5z m74 -82
c-3 -26 -6 -38 -8 -27 -2 11 -8 31 -12 45 -7 21 -5 26 8 27 13 1 15 -7 12 -45z"/>
<path d="M1088 1405 c-15 -9 -32 -24 -38 -35 -6 -12 -10 -157 -10 -394 l0
-375 24 -28 c24 -28 25 -28 146 -28 121 0 122 0 146 28 l24 28 0 377 0 377
-24 30 c-24 30 -25 30 -133 33 -82 1 -115 -2 -135 -13z"/>
<path d="M563 1100 c-47 -19 -53 -53 -53 -279 l0 -211 28 -31 29 -32 104 1
c57 0 110 1 117 1 7 1 24 12 37 26 l25 24 0 225 0 224 -26 31 -26 31 -106 -1
c-59 0 -117 -4 -129 -9z m247 -30 c27 -35 25 -44 -5 -15 -22 23 -32 25 -117
25 -70 0 -99 -4 -116 -16 -34 -23 -38 -10 -5 16 25 20 37 21 126 18 91 -3 100
-5 117 -28z"/>
<path d="M510 170 c-282 -13 -436 -35 -379 -54 37 -12 170 -27 324 -36 228
-13 1106 -13 1335 1 273 16 382 39 293 61 -110 27 -1173 46 -1573 28z"/>
</g>
</svg>
